<svg width="71" height="70" viewBox="0 0 71 70" fill="none" xmlns="http://www.w3.org/2000/svg">
<path d="M70.375 35C70.375 54.0538 54.9288 69.5 35.875 69.5C16.8212 69.5 1.375 54.0538 1.375 35C1.375 15.9462 16.8212 0.5 35.875 0.5C54.9288 0.5 70.375 15.9462 70.375 35Z" fill="#478DF7" stroke="#478DF7"/>
<path d="M35.875 67.5C53.8243 67.5 68.375 52.9493 68.375 35C68.375 17.0507 53.8243 2.5 35.875 2.5C17.9257 2.5 3.375 17.0507 3.375 35C3.375 52.9493 17.9257 67.5 35.875 67.5Z" fill="#478DF7" stroke="#478DF7" stroke-width="5"/>
<path d="M30.057 41.985L22.42 34.463L19.875 36.97L30.057 47L51.875 25.507L49.33 23L30.057 41.985Z" fill="white"/>
</svg>
